<svg width="96" height="96" viewBox="0 0 96 96" fill="none" xmlns="http://www.w3.org/2000/svg">
<g clip-path="url(#clip0_3_17)">
<path fill-rule="evenodd" clip-rule="evenodd" d="M16.6939 16.8824C11.8783 22.9203 9 30.5712 9 38.8943C9 58.4075 24.8205 74.2261 44.3362 74.2261C63.8518 74.2261 79.6723 58.4075 79.6723 38.8943C79.6723 19.3811 63.8518 3.5625 44.3362 3.5625C41.2903 3.5625 38.3344 3.94783 35.5146 4.67241C36.1257 6.03111 36.7071 7.34362 37.2594 8.61104C39.5327 8.08202 41.9018 7.80232 44.3362 7.80232C61.5099 7.80232 75.432 21.7227 75.432 38.8943C75.432 56.0659 61.5099 69.9863 44.3362 69.9863C27.1624 69.9863 13.2403 56.0659 13.2403 38.8943C13.2403 31.8277 15.5981 25.3118 19.5699 20.09C18.6055 19.0309 17.6449 17.9589 16.6939 16.8824Z" fill="currentColor"/>
<path fill-rule="evenodd" clip-rule="evenodd" d="M79.3286 78.9959C84.1441 72.958 87.0224 65.3072 87.0224 56.9841C87.0224 37.4709 71.2018 21.6523 51.6862 21.6523C32.1706 21.6523 16.35 37.4709 16.35 56.9841C16.35 76.4973 32.1706 92.3159 51.6862 92.3159C54.7322 92.3159 57.6881 91.9306 60.5079 91.206C59.8968 89.8473 59.3155 88.5348 58.7631 87.2673C56.4897 87.7964 54.1206 88.0761 51.6862 88.0761C34.5125 88.0761 20.5904 74.1558 20.5904 56.9841C20.5904 39.8125 34.5125 25.8922 51.6862 25.8922C68.86 25.8922 82.782 39.8125 82.782 56.9841C82.782 64.0506 80.4243 70.5665 76.4526 75.7882C77.417 76.8474 78.3776 77.9194 79.3286 78.9959Z" fill="currentColor"/>
</g>
<defs>
<clipPath id="clip0_3_17">
<rect width="96" height="96" fill="white"/>
</clipPath>
</defs>
<style>
  path { fill: black; }
  @media (prefers-color-scheme: dark) {
    path { fill: white; }
  }
</style>
</svg>
